<svg width="24" height="24" viewBox="0 0 24 24" fill="none" xmlns="http://www.w3.org/2000/svg">
<rect width="24" height="24" rx="12" fill="#FCFCFC"/>
<path fill-rule="evenodd" clip-rule="evenodd" d="M12.89 8.64004C11.73 9.12004 9.39 10.13 5.89 11.64C5.29667 11.88 5 12.1034 5 12.31C5 12.68 5.42 12.82 6 13.02L6.26 13.1C6.86475 13.3167 7.49207 13.4643 8.13 13.54C8.60264 13.5188 9.05696 13.351 9.43 13.06C12.7 10.86 14.43 9.74004 14.49 9.72004C14.5288 9.70067 14.5716 9.69059 14.615 9.69059C14.6584 9.69059 14.7012 9.70067 14.74 9.72004C14.7853 9.74885 14.8192 9.79263 14.8356 9.84377C14.852 9.89492 14.8501 9.9502 14.83 10C13.9602 10.9471 13.0353 11.842 12.06 12.68L11.53 13.18L11.24 13.46C10.67 14.01 10.24 14.46 11.24 15.09L12.54 16C12.97 16.29 13.39 16.58 13.95 16.94L14.35 17.22C14.756 17.6066 15.2897 17.8307 15.85 17.85C16.17 17.85 16.5 17.51 16.67 16.62C17.06 14.44 17.85 9.84004 18 7.94004C18.0152 7.78374 18.0152 7.62634 18 7.47004C17.9825 7.34391 17.9225 7.22751 17.83 7.14004C17.6947 7.04731 17.5341 6.99843 17.37 7.00004C16.92 7.00004 16.23 7.25004 12.89 8.64004Z" fill="#FEAFC3"/>
</svg>
