<svg width="24" height="24" viewBox="0 0 24 24" fill="none" xmlns="http://www.w3.org/2000/svg">
<rect width="24" height="24" rx="12" fill="#FCFCFC"/>
<path d="M14.25 11.67L11.45 10.36C11.4036 10.3285 11.349 10.3112 11.2929 10.3101C11.2368 10.309 11.1816 10.3242 11.134 10.3538C11.0864 10.3834 11.0484 10.4262 11.0246 10.477C11.0008 10.5278 10.9923 10.5844 11 10.64V13.11C10.9923 13.1656 11.0008 13.2222 11.0246 13.273C11.0484 13.3238 11.0864 13.3666 11.134 13.3962C11.1816 13.4258 11.2368 13.441 11.2929 13.4399C11.349 13.4388 11.4036 13.4215 11.45 13.39L14.25 12.08C14.5 12 14.5 11.78 14.25 11.67ZM12.25 16.75C6.11 16.75 6 16.2 6 11.88C6 7.56 6.11 7 12.25 7C18.39 7 18.5 7.55 18.5 11.88C18.5 16.21 18.39 16.75 12.25 16.75Z" fill="#FEAFC3"/>
</svg>
