<svg width="24" height="24" viewBox="0 0 24 24" fill="none" xmlns="http://www.w3.org/2000/svg">
<rect width="24" height="24" rx="12" fill="#FCFCFC"/>
<path fill-rule="evenodd" clip-rule="evenodd" d="M12.59 15.0147H11.87C10.7575 15.0111 9.68685 14.59 8.87 13.8347C7.70808 12.5977 6.74042 11.1917 6 9.66466C6 9.66466 6 9.48466 6 9.39466C6 9.30466 6.39 9.28466 6.39 9.28466H8.11C8.20481 9.29763 8.29637 9.32815 8.38 9.37466C8.4457 9.41962 8.49763 9.48193 8.53 9.55466C8.72029 9.95874 8.93745 10.3496 9.18 10.7247C9.89 11.8047 10.23 12.0147 10.47 11.9347C10.71 11.8547 10.72 10.3947 10.72 10.3947C10.7236 10.1463 10.6615 9.90134 10.54 9.68466C10.3926 9.5455 10.2021 9.46083 10 9.44466C9.9 9.44466 10.06 9.23466 10.26 9.15466C10.7513 9.02035 11.2624 8.97297 11.77 9.01466C12.0517 9.00835 12.3332 9.03181 12.61 9.08466C13.07 9.18466 13.05 9.49466 13.02 10.1647C13.02 10.3547 13.02 10.5947 13.02 10.8547V11.0147C13.02 11.3547 13.02 11.7447 13.25 11.8947C13.48 12.0447 13.7 11.8947 14.51 10.7047C14.7567 10.3234 14.9708 9.92196 15.15 9.50466C15.19 9.43681 15.2447 9.37873 15.31 9.33466C15.389 9.31666 15.471 9.31666 15.55 9.33466H17.35C17.35 9.33466 17.89 9.28466 17.98 9.49466C18.07 9.70466 17.78 10.1947 17 11.0147C16.22 11.8347 16 12.1347 16 12.3947C16 12.6547 16.24 12.7747 16.67 13.1147C17.1283 13.4451 17.5273 13.8509 17.85 14.3147C18.25 14.8947 17.41 14.9347 17.41 14.9347L15.85 15.0147C15.5674 15.0351 15.2861 14.9613 15.05 14.8047C14.7964 14.6336 14.5647 14.4321 14.36 14.2047C14.03 13.8747 13.71 13.5547 13.45 13.6347C13 13.7547 13.01 14.6347 13.01 14.6347C13.0147 14.7358 12.9828 14.8352 12.92 14.9147C12.8204 14.9758 12.7068 15.0102 12.59 15.0147Z" fill="#FEAFC3"/>
</svg>
